# AST/ASF file generated using VICON BodyLanguage
# -----------------------------------------------
:version 1.10
:name VICON
:units
  mass 1.0
  length 0.45
  angle deg
:documentation
   .ast/.asf automatically generated from VICON data using
   VICON BodyBuilder and BodyLanguage model FoxedUp or BRILLIANT.MOD
:root
   order TX TY TZ RX RY RZ
   axis XYZ
   position 0 0 0  
   orientation 0 0 0 
:bonedata
  begin
     id 1 
     name lhipjoint
     direction 0.624716 -0.669793 0.401383 
     length 2.38238 
     axis 0 0 0  XYZ
  end
  begin
     id 2 
     name lfemur
     direction 0.34202 -0.939693 0  
     length 6.4574  
     axis 0 0 20  XYZ
    dof rx ry rz
    limits (-160.0 20.0)
           (-70.0 70.0)
           (-60.0 70.0)
  end
  begin
     id 3 
     name ltibia
     direction 0.34202 -0.939693 0   
     length 7.68739   
     axis 0 0 20   XYZ
    dof rx
    limits (-10.0 170.0)
  end
  begin
     id 4 
     name lfoot
     direction 0.0681309 -0.187188 0.979959   
     length 2.46615   
     axis -90 7.62852e-016 20   XYZ
    dof rx rz
    limits (-45.0 90.0)
           (-70.0 20.0)
  end
  begin
     id 5 
     name ltoes
     direction 1.53566e-011 -4.21819e-011 1   
     length 1.2376   
     axis -90 7.62852e-016 20   XYZ
    dof rx
    limits (-90.0 20.0)
  end
  begin
     id 6 
     name rhipjoint
     direction -0.644473 -0.655875 0.393043   
     length 2.43293  
     axis 0 0 0  XYZ 
  end
  begin
     id 7 
     name rfemur
     direction -0.34202 -0.939693 0   
     length 6.7025   
     axis 0 0 -20   XYZ
    dof rx ry rz
    limits (-160.0 20.0)
           (-70.0 70.0)
           (-70.0 60.0)
  end
  begin
     id 8 
     name rtibia
     direction -0.34202 -0.939693 0   
     length 7.80547   
     axis 0 0 -20   XYZ
    dof rx
    limits (-10.0 170.0)
 end
 begin
     id 9 
     name rfoot
     direction -0.0756734 -0.207911 0.975216   
     length 2.40315  
     axis -90 -7.62852e-016 -20   XYZ
    dof rx rz
    limits (-45.0 90.0)
           (-20.0 70.0)
  end
  begin
     id 10 
     name rtoes
     direction -1.5353e-011 -4.21879e-011 1   
     length 1.20477   
     axis -90 -7.62852e-016 -20   XYZ
    dof rx
    limits (-90.0 20.0)
  end
  begin
     id 11 
     name lowerback
     direction 0.0160353 0.987463 -0.157037   
     length 2.18572   
     axis 0 0 0   XYZ
    dof rx ry rz
    limits (-20.0 45.0)
           (-30.0 30.0)
           (-30.0 30.0)
  end
  begin
     id 12 
     name upperback
     direction -0.00499661 0.999756 0.0215076   
     length 2.18016   
     axis 0 0 0   XYZ
    dof rx ry rz
    limits (-20.0 45.0)
           (-30.0 30.0)
           (-30.0 30.0)
  end
  begin
     id 13 
     name thorax
     direction -0.00921346 0.995333 0.0960619   
     length 2.24923   
     axis 0 0 0   XYZ
    dof rx ry rz
    limits (-20.0 45.0)
           (-30.0 30.0)
           (-30.0 30.0)
  end
  begin
     id 14 
     name lowerneck
     direction 0.0274184 0.991181 0.12965   
     length 1.70911   
     axis 0 0 0   XYZ
    dof rx ry rz
    limits (-20.0 45.0)
           (-30.0 30.0)
           (-30.0 30.0)
  end
  begin
     id 15 
     name upperneck
     direction 0.0015627 0.999959 -0.00893559   
     length 1.69312   
     axis 0 0 0   XYZ
    dof rx ry rz
    limits (-20.0 45.0)
           (-30.0 30.0)
           (-30.0 30.0)
  end
  begin
     id 16
     name head
     direction -0.00230242 0.999856 -0.0168327  
     length 1.80241  
     axis 0 0 0   XYZ
    dof rx ry rz
    limits (-20.0 45.0)
           (-30.0 30.0)
           (-30.0 30.0)
  end
  begin
     id 17 
     name lclavicle
     direction 0.955523 0.290741 -0.0494489  
     length 3.84275  
     axis 0 0 0   XYZ
    dof ry rz
    limits (-20.0 10.0)
           (0.0 20.0)
  end
  begin
     id 18 
     name lhumerus
     direction 1 -4.48967e-011 -3.18382e-028   
     length 5.17714   
     axis 180 -30 -90   XYZ
    dof rx ry rz
    limits (-60.0 90.0)
           (-90.0 90.0)
           (-90.0 90.0)
  end
  begin
     id 19
     name lradius
     direction 1 -4.48968e-011 -2.22911e-027   
     length 3.43679   
     axis 180 -30 -90   XYZ
    dof rx
    limits (-10.0 170.0)
  end
  begin
     id 20
     name lwrist
     direction 1 -4.48951e-011 -6.32245e-027   
     length 1.7184   
     axis 3.57107e-015 90 90   XYZ
    dof ry
    limits (-180.0 0.0)
 end
  begin
     id 21 
     name lhand
     direction 1 -4.48924e-011 -1.26431e-026   
     length 0.573117   
     axis 8.06912e-015 90 90   XYZ
    dof rx rz
    limits (-90.0 90.0)
           (-45.0 45.0)
  end
  begin
     id 22 
     name lfingers
     direction 1 -4.49001e-011 -2.52965e-026   
     length 0.462062   
     axis 1.61381e-014 90 90   XYZ
    dof rx
    limits (0.0 90.0)
  end
  begin
     id 23
     name lthumb
     direction 0.707107 -6.35008e-011 0.707107   
     length 0.663431   
     axis -90 45 -1.62303e-014   XYZ
    dof rx rz
    limits (-45.0 45.0)
           (-45.0 45.0)
  end
  begin
     id 24 
     name rclavicle
     direction -0.963917 0.256881 -0.0698287   
     length 3.73057  
     axis 0 0 0   XYZ 
    dof ry rz
    limits (-10.0 20.0)
           (-20.0 0.0)
  end
  begin
     id 25 
     name rhumerus
     direction -1 -4.48962e-011 -2.73982e-027  
     length 5.23908   
     axis 180 30 90   XYZ
    dof rx ry rz
    limits (-90.0 60.0)
           (-90.0 90.0)
           (-90.0 90.0)
  end
  begin
     id 26 
     name rradius
     direction -1 -4.48968e-011 -4.33218e-027   
     length 3.46485   
     axis 180 30 90   XYZ
    dof rx
    limits (-10.0 170.0)
  end
  begin
     id 27 
     name rwrist
     direction -1 -4.48989e-011 -6.32372e-027   
     length 1.73243   
     axis 3.57107e-015 -90 -90   XYZ
    dof ry
    limits (-180.0 0.0)
  end
  begin
     id 28
     name rhand
     direction -1 -4.48948e-011 -1.26448e-026   
     length 0.608752   
     axis 8.06912e-015 -90 -90   XYZ
    dof rx rz
    limits (-90.0 90.0)
           (-45.0 45.0)
  end
  begin
     id 29
     name rfingers
     direction -1 -4.48962e-011 -2.52913e-026   
     length 0.490792   
     axis 1.61381e-014 -90 -90   XYZ
    dof rx
    limits (0.0 90.0)
  end
  begin
     id 30
     name rthumb
     direction -0.707107 -6.34878e-011 0.707107   
     length 0.704682   
     axis -90 -45 1.62303e-014   XYZ
    dof rx rz
    limits (-45.0 45.0)
           (-45.0 45.0)
  end
:hierarchy
  begin
    root lhipjoint rhipjoint lowerback
    lhipjoint lfemur
    lfemur ltibia
    ltibia lfoot
    lfoot ltoes
    rhipjoint rfemur
    rfemur rtibia
    rtibia rfoot
    rfoot rtoes
    lowerback upperback
    upperback thorax
    thorax lowerneck lclavicle rclavicle
    lowerneck upperneck
    upperneck head
    lclavicle lhumerus
    lhumerus lradius
    lradius lwrist
    lwrist lhand lthumb
    lhand lfingers
    rclavicle rhumerus
    rhumerus rradius
    rradius rwrist
    rwrist rhand rthumb
    rhand rfingers
  end

#!OML:ASF G:\JayActor3\Patient Classification 1\Patient 1\Session 6\male.ASF
:FULLY-SPECIFIED
:DEGREES
560
root 27.1537 16.1366 -11.0717 11.0572 -51.3362 -20.1603
lowerback 0.120412 -1.89211 10.3213
upperback -0.765883 -2.52048 4.74459
thorax -1.08949 -1.35853 -0.813617
lowerneck -6.43305 -0.496113 2.81114
upperneck 13.7608 -0.747807 -2.46253
head 5.17277 -0.420923 -1.27919
rclavicle 8.66204e-014 4.49253e-014
rhumerus -25.849 -5.693 -79.6276
rradius 23.292
rwrist 18.3152
rhand -9.57321 -6.23394
rfingers 7.12502
rthumb 16.3946 -35.5611
lclavicle 8.66204e-014 4.49253e-014
lhumerus -42.0813 17.1497 79.2038
lradius 25.9136
lwrist 17.2603
lhand -12.5449 12.9552
lfingers 7.12502
lthumb 13.5319 42.4955
rfemur 4.91886 -10.4373 38.9638
rtibia 13.4436
rfoot -14.4565 -9.18647
rtoes 5.20627
lfemur -18.4562 -1.52019 -4.41252
ltibia 73.5272
lfoot -12.4515 10.6172
ltoes -10.7275
561
root 27.0942 16.1313 -11.0325 11.0384 -51.1655 -20.2145
lowerback 0.171242 -1.73795 10.5252
upperback -0.733307 -2.30818 4.65087
thorax -1.07733 -1.2525 -1.02513
lowerneck -6.46768 -0.696061 2.59355
upperneck 13.8115 -1.04336 -2.10904
head 5.19001 -0.553357 -1.15231
rclavicle -1.55549e-014 1.94809e-014
rhumerus -25.7185 -5.39861 -79.7849
rradius 23.4441
rwrist 17.9727
rhand -9.48048 -6.26153
rfingers 7.12502
rthumb 16.4839 -35.5813
lclavicle -1.55549e-014 1.94809e-014
lhumerus -41.9493 17.0848 79.2636
lradius 26.1973
lwrist 17.8342
lhand -12.814 12.9617
lfingers 7.12502
lthumb 13.2725 42.5191
rfemur 5.40527 -10.3224 39.0732
rtibia 13.0994
rfoot -14.5285 -9.49636
rtoes 5.13937
lfemur -19.6979 -2.01179 -4.56935
ltibia 73.4626
lfoot -12.898 10.8892
ltoes -10.9924
562
root 27.0351 16.1253 -10.9935 11.0244 -51.017 -20.2771
lowerback 0.254177 -1.585 10.7362
upperback -0.710695 -2.09158 4.55375
thorax -1.0915 -1.14573 -1.243
lowerneck -6.4925 -0.891516 2.38991
upperneck 13.8542 -1.33284 -1.76773
head 5.20477 -0.682798 -1.03117
rclavicle -4.41053e-014 -3.1408e-014
rhumerus -25.6209 -5.07418 -79.9556
rradius 23.6259
rwrist 17.5814
rhand -9.40577 -6.3025
rfingers 7.12502
rthumb 16.5558 -35.6163
lclavicle -4.41053e-014 -3.1408e-014
lhumerus -41.8625 16.9847 79.3213
lradius 26.5169
lwrist 18.3687
lhand -12.9764 12.9829
lfingers 7.12502
lthumb 13.1159 42.5504
rfemur 5.87361 -10.197 39.1851
rtibia 12.797
rfoot -14.6121 -9.80379
rtoes 4.99617
lfemur -20.8838 -2.42507 -4.71765
ltibia 73.2774
lfoot -13.26 11.0184
ltoes -11.3984
563
root 26.9762 16.1187 -10.9547 11.0108 -50.8976 -20.3432
lowerback 0.363889 -1.43424 10.9428
upperback -0.693041 -1.87317 4.45591
thorax -1.12335 -1.03898 -1.45863
lowerneck -6.50476 -1.07684 2.20814
upperneck 13.8819 -1.60783 -1.44949
head 5.21421 -0.805481 -0.91982
rclavicle 4.49005e-014 -1.72943e-014
rhumerus -25.5455 -4.7085 -80.1417
rradius 23.8336
rwrist 17.1368
rhand -9.32127 -6.35416
rfingers 7.12502
rthumb 16.6372 -35.6611
lclavicle 4.49005e-014 -1.72943e-014
lhumerus -41.818 16.8873 79.3584
lradius 26.8556
lwrist 18.8019
lhand -13.0136 13.0035
lfingers 7.12502
lthumb 13.08 42.5733
rfemur 6.32852 -10.0475 39.2966
rtibia 12.5331
rfoot -14.7181 -10.1097
rtoes 4.81529
lfemur -22.0068 -2.74747 -4.86458
ltibia 72.975
lfoot -13.5491 11.0349
ltoes -11.8453
564
root 26.9171 16.1117 -10.916 10.9884 -50.8072 -20.398
lowerback 0.5005 -1.28639 11.1348
upperback -0.684 -1.65341 4.355
thorax -1.17666 -0.932717 -1.66929
lowerneck -6.50686 -1.25284 2.0505
upperneck 13.9052 -1.86935 -1.15787
head 5.22165 -0.922097 -0.819851
rclavicle 9.79263e-014 -9.14409e-015
rhumerus -25.4954 -4.30602 -80.3424
rradius 24.0634
rwrist 16.6471
rhand -9.22959 -6.41961
rfingers 7.12502
rthumb 16.7254 -35.7191
lclavicle 9.79263e-014 -9.14409e-015
lhumerus -41.8159 16.7814 79.3856
lradius 27.2138
lwrist 19.1917
lhand -13.0192 13.0392
lfingers 7.12502
lthumb 13.0746 42.6094
rfemur 6.77209 -9.87522 39.3991
rtibia 12.301
rfoot -14.8393 -10.4079
rtoes 4.62512
lfemur -23.0631 -2.97317 -5.02383
ltibia 72.5552
lfoot -13.7906 10.9635
ltoes -12.2578
565
root 26.8579 16.1049 -10.8776 10.9645 -50.7435 -20.4383
lowerback 0.64779 -1.1449 11.308
upperback -0.683518 -1.43938 4.25341
thorax -1.24299 -0.83016 -1.87054
lowerneck -6.49214 -1.41534 1.90007
upperneck 13.9177 -2.11108 -0.881307
head 5.2241 -1.02972 -0.724343
rclavicle -6.83322e-015 -3.33958e-014
rhumerus -25.464 -3.86995 -80.5561
rradius 24.3087
rwrist 16.134
rhand -9.15245 -6.47627
rfingers 7.12502
rthumb 16.7997 -35.7695
lclavicle -6.83322e-015 -3.33958e-014
lhumerus -41.8529 16.676 79.4098
lradius 27.591
lwrist 19.5778
lhand -13.0584 13.0889
lfingers 7.12502
lthumb 13.0369 42.6615
rfemur 7.19634 -9.67853 39.4934
rtibia 12.0954
rfoot -14.9688 -10.714
rtoes 4.40484
lfemur -24.0603 -3.10222 -5.19958
ltibia 72.0231
lfoot -14.0226 10.815
ltoes -12.5327
